<mxfile host="app.diagrams.net" agent="Mozilla/5.0 (Windows NT 10.0; Win64; x64) AppleWebKit/537.36 (KHTML, like Gecko) Chrome/127.0.0.0 Safari/537.36" version="24.7.6">
  <diagram name="Trang-1" id="RHoZVSpDEULNvFGNIQyn">
    <mxGraphModel grid="1" page="1" gridSize="10" guides="1" tooltips="1" connect="1" arrows="1" fold="1" pageScale="1" pageWidth="2339" pageHeight="3300" math="0" shadow="0">
      <root>
        <mxCell id="0" />
        <mxCell id="1" parent="0" />
        <mxCell id="C92_ROcSfTYuFBgOWo9x-1" value="User" style="swimlane;fontStyle=1;align=center;verticalAlign=top;childLayout=stackLayout;horizontal=1;startSize=26;horizontalStack=0;resizeParent=1;resizeParentMax=0;resizeLast=0;collapsible=1;marginBottom=0;whiteSpace=wrap;html=1;" vertex="1" parent="1">
          <mxGeometry x="670" y="20" width="220" height="166" as="geometry">
            <mxRectangle x="250" y="330" width="70" height="30" as="alternateBounds" />
          </mxGeometry>
        </mxCell>
        <mxCell id="C92_ROcSfTYuFBgOWo9x-2" value="- userID: int &lt;div&gt;- username: String&lt;br&gt;&lt;/div&gt;&lt;div&gt;- password: String&lt;/div&gt;&lt;div&gt;- email: String&lt;/div&gt;&lt;div&gt;- role: String&lt;/div&gt;&lt;div&gt;-&amp;nbsp;phoneNumber: String&lt;/div&gt;" style="text;strokeColor=none;fillColor=none;align=left;verticalAlign=top;spacingLeft=4;spacingRight=4;overflow=hidden;rotatable=0;points=[[0,0.5],[1,0.5]];portConstraint=eastwest;whiteSpace=wrap;html=1;" vertex="1" parent="C92_ROcSfTYuFBgOWo9x-1">
          <mxGeometry y="26" width="220" height="90" as="geometry" />
        </mxCell>
        <mxCell id="C92_ROcSfTYuFBgOWo9x-3" value="" style="line;strokeWidth=1;fillColor=none;align=left;verticalAlign=middle;spacingTop=-1;spacingLeft=3;spacingRight=3;rotatable=0;labelPosition=right;points=[];portConstraint=eastwest;strokeColor=inherit;" vertex="1" parent="C92_ROcSfTYuFBgOWo9x-1">
          <mxGeometry y="116" width="220" height="8" as="geometry" />
        </mxCell>
        <mxCell id="C92_ROcSfTYuFBgOWo9x-4" value="&lt;div&gt;+&amp;nbsp;register()&lt;/div&gt;&lt;div&gt;+&amp;nbsp;login()&lt;/div&gt;" style="text;strokeColor=none;fillColor=none;align=left;verticalAlign=top;spacingLeft=4;spacingRight=4;overflow=hidden;rotatable=0;points=[[0,0.5],[1,0.5]];portConstraint=eastwest;whiteSpace=wrap;html=1;" vertex="1" parent="C92_ROcSfTYuFBgOWo9x-1">
          <mxGeometry y="124" width="220" height="42" as="geometry" />
        </mxCell>
        <mxCell id="C92_ROcSfTYuFBgOWo9x-5" value="Seller" style="swimlane;fontStyle=1;align=center;verticalAlign=top;childLayout=stackLayout;horizontal=1;startSize=26;horizontalStack=0;resizeParent=1;resizeParentMax=0;resizeLast=0;collapsible=1;marginBottom=0;whiteSpace=wrap;html=1;" vertex="1" parent="1">
          <mxGeometry x="230" y="280" width="270" height="130" as="geometry">
            <mxRectangle x="250" y="330" width="70" height="30" as="alternateBounds" />
          </mxGeometry>
        </mxCell>
        <mxCell id="C92_ROcSfTYuFBgOWo9x-6" value="- sellerID: int&amp;nbsp;" style="text;strokeColor=none;fillColor=none;align=left;verticalAlign=top;spacingLeft=4;spacingRight=4;overflow=hidden;rotatable=0;points=[[0,0.5],[1,0.5]];portConstraint=eastwest;whiteSpace=wrap;html=1;" vertex="1" parent="C92_ROcSfTYuFBgOWo9x-5">
          <mxGeometry y="26" width="270" height="54" as="geometry" />
        </mxCell>
        <mxCell id="C92_ROcSfTYuFBgOWo9x-7" value="" style="line;strokeWidth=1;fillColor=none;align=left;verticalAlign=middle;spacingTop=-1;spacingLeft=3;spacingRight=3;rotatable=0;labelPosition=right;points=[];portConstraint=eastwest;strokeColor=inherit;" vertex="1" parent="C92_ROcSfTYuFBgOWo9x-5">
          <mxGeometry y="80" width="270" height="8" as="geometry" />
        </mxCell>
        <mxCell id="C92_ROcSfTYuFBgOWo9x-8" value="+ submitAuctionRequest()&lt;br&gt;&lt;div&gt;+ confirmAuction()&amp;nbsp;&lt;br&gt;&lt;/div&gt;" style="text;strokeColor=none;fillColor=none;align=left;verticalAlign=top;spacingLeft=4;spacingRight=4;overflow=hidden;rotatable=0;points=[[0,0.5],[1,0.5]];portConstraint=eastwest;whiteSpace=wrap;html=1;" vertex="1" parent="C92_ROcSfTYuFBgOWo9x-5">
          <mxGeometry y="88" width="270" height="42" as="geometry" />
        </mxCell>
        <mxCell id="lpN_ar5oNNIw63qb3rWN-6" value="&lt;p style=&quot;margin:0px;margin-top:4px;text-align:center;&quot;&gt;&lt;b&gt;Customer&lt;/b&gt;&lt;/p&gt;&lt;hr size=&quot;1&quot; style=&quot;border-style:solid;&quot;&gt;&lt;p style=&quot;margin:0px;margin-left:4px;&quot;&gt;- customerID: int&amp;nbsp;&lt;br&gt;&lt;/p&gt;&lt;hr size=&quot;1&quot; style=&quot;border-style:solid;&quot;&gt;&lt;p style=&quot;margin:0px;margin-left:4px;&quot;&gt;+ registerForAuction()&lt;br&gt;&lt;/p&gt;&lt;p style=&quot;margin:0px;margin-left:4px;&quot;&gt;+ placeBid()&lt;br&gt;&lt;/p&gt;&lt;p style=&quot;margin:0px;margin-left:4px;&quot;&gt;+ makePayment()&lt;/p&gt;&lt;p style=&quot;margin:0px;margin-left:4px;&quot;&gt;+ viewAuctionResults()&amp;nbsp;&lt;br&gt;&lt;/p&gt;" style="verticalAlign=top;align=left;overflow=fill;html=1;whiteSpace=wrap;" vertex="1" parent="1">
          <mxGeometry x="840" y="280" width="260" height="150" as="geometry" />
        </mxCell>
        <mxCell id="lpN_ar5oNNIw63qb3rWN-11" value=" Manager" style="swimlane;fontStyle=1;align=center;verticalAlign=top;childLayout=stackLayout;horizontal=1;startSize=26;horizontalStack=0;resizeParent=1;resizeParentMax=0;resizeLast=0;collapsible=1;marginBottom=0;whiteSpace=wrap;html=1;" vertex="1" parent="1">
          <mxGeometry x="1120" y="490" width="300" height="110" as="geometry" />
        </mxCell>
        <mxCell id="lpN_ar5oNNIw63qb3rWN-12" value="&lt;div&gt;- managerID: int&lt;br&gt;&lt;/div&gt;" style="text;strokeColor=none;fillColor=none;align=left;verticalAlign=top;spacingLeft=4;spacingRight=4;overflow=hidden;rotatable=0;points=[[0,0.5],[1,0.5]];portConstraint=eastwest;whiteSpace=wrap;html=1;" vertex="1" parent="lpN_ar5oNNIw63qb3rWN-11">
          <mxGeometry y="26" width="300" height="34" as="geometry" />
        </mxCell>
        <mxCell id="lpN_ar5oNNIw63qb3rWN-13" value="" style="line;strokeWidth=1;fillColor=none;align=left;verticalAlign=middle;spacingTop=-1;spacingLeft=3;spacingRight=3;rotatable=0;labelPosition=right;points=[];portConstraint=eastwest;strokeColor=inherit;" vertex="1" parent="lpN_ar5oNNIw63qb3rWN-11">
          <mxGeometry y="60" width="300" height="8" as="geometry" />
        </mxCell>
        <mxCell id="lpN_ar5oNNIw63qb3rWN-14" value="&lt;div&gt;+ approveValuation()&lt;br&gt;&lt;/div&gt;&lt;div&gt;+ assignAuction()&lt;br&gt;&lt;/div&gt;" style="text;strokeColor=none;fillColor=none;align=left;verticalAlign=top;spacingLeft=4;spacingRight=4;overflow=hidden;rotatable=0;points=[[0,0.5],[1,0.5]];portConstraint=eastwest;whiteSpace=wrap;html=1;" vertex="1" parent="lpN_ar5oNNIw63qb3rWN-11">
          <mxGeometry y="68" width="300" height="42" as="geometry" />
        </mxCell>
        <mxCell id="lpN_ar5oNNIw63qb3rWN-15" value="" style="endArrow=block;endSize=16;endFill=0;html=1;rounded=0;exitX=0.467;exitY=0.001;exitDx=0;exitDy=0;exitPerimeter=0;entryX=0.108;entryY=1.04;entryDx=0;entryDy=0;entryPerimeter=0;" edge="1" parent="1" source="C92_ROcSfTYuFBgOWo9x-5" target="C92_ROcSfTYuFBgOWo9x-4">
          <mxGeometry width="160" relative="1" as="geometry">
            <mxPoint x="330" y="340" as="sourcePoint" />
            <mxPoint x="582" y="200" as="targetPoint" />
            <Array as="points">
              <mxPoint x="356" y="240" />
              <mxPoint x="460" y="240" />
              <mxPoint x="693" y="240" />
            </Array>
          </mxGeometry>
        </mxCell>
        <mxCell id="lpN_ar5oNNIw63qb3rWN-16" value="" style="endArrow=block;endSize=16;endFill=0;html=1;rounded=0;exitX=0.533;exitY=0.004;exitDx=0;exitDy=0;exitPerimeter=0;entryX=1.023;entryY=0.183;entryDx=0;entryDy=0;entryPerimeter=0;" edge="1" parent="1" source="lpN_ar5oNNIw63qb3rWN-11" target="C92_ROcSfTYuFBgOWo9x-4">
          <mxGeometry width="160" relative="1" as="geometry">
            <mxPoint x="679" y="270" as="sourcePoint" />
            <mxPoint x="679" y="200" as="targetPoint" />
            <Array as="points">
              <mxPoint x="1280" y="440" />
              <mxPoint x="1560" y="440" />
              <mxPoint x="1560" y="152" />
            </Array>
          </mxGeometry>
        </mxCell>
        <mxCell id="8DoTlK2dznRhzNa83eF4-1" value="Employee" style="swimlane;fontStyle=1;align=center;verticalAlign=top;childLayout=stackLayout;horizontal=1;startSize=26;horizontalStack=0;resizeParent=1;resizeParentMax=0;resizeLast=0;collapsible=1;marginBottom=0;whiteSpace=wrap;html=1;" vertex="1" parent="1">
          <mxGeometry x="1120" y="270" width="300" height="108" as="geometry" />
        </mxCell>
        <mxCell id="8DoTlK2dznRhzNa83eF4-2" value="- employeeId: int" style="text;strokeColor=none;fillColor=none;align=left;verticalAlign=top;spacingLeft=4;spacingRight=4;overflow=hidden;rotatable=0;points=[[0,0.5],[1,0.5]];portConstraint=eastwest;whiteSpace=wrap;html=1;" vertex="1" parent="8DoTlK2dznRhzNa83eF4-1">
          <mxGeometry y="26" width="300" height="24" as="geometry" />
        </mxCell>
        <mxCell id="8DoTlK2dznRhzNa83eF4-3" value="" style="line;strokeWidth=1;fillColor=none;align=left;verticalAlign=middle;spacingTop=-1;spacingLeft=3;spacingRight=3;rotatable=0;labelPosition=right;points=[];portConstraint=eastwest;strokeColor=inherit;" vertex="1" parent="8DoTlK2dznRhzNa83eF4-1">
          <mxGeometry y="50" width="300" height="8" as="geometry" />
        </mxCell>
        <mxCell id="8DoTlK2dznRhzNa83eF4-4" value="&lt;span style=&quot;background-color: initial;&quot;&gt;+&amp;nbsp;&lt;/span&gt;evaluateJewelry()&amp;nbsp;&lt;br&gt;&lt;span style=&quot;background-color: initial;&quot;&gt;+&amp;nbsp;&lt;/span&gt;confirmReceipt()&amp;nbsp;&lt;br&gt;&lt;span style=&quot;background-color: initial;&quot;&gt;+&amp;nbsp;&lt;/span&gt;finalizeValuation()" style="text;strokeColor=none;fillColor=none;align=left;verticalAlign=top;spacingLeft=4;spacingRight=4;overflow=hidden;rotatable=0;points=[[0,0.5],[1,0.5]];portConstraint=eastwest;whiteSpace=wrap;html=1;" vertex="1" parent="8DoTlK2dznRhzNa83eF4-1">
          <mxGeometry y="58" width="300" height="50" as="geometry" />
        </mxCell>
        <mxCell id="lpN_ar5oNNIw63qb3rWN-17" value="" style="endArrow=block;endSize=16;endFill=0;html=1;rounded=0;exitX=0.25;exitY=0;exitDx=0;exitDy=0;entryX=0.683;entryY=0.998;entryDx=0;entryDy=0;entryPerimeter=0;" edge="1" parent="1" source="lpN_ar5oNNIw63qb3rWN-6" target="C92_ROcSfTYuFBgOWo9x-4">
          <mxGeometry width="160" relative="1" as="geometry">
            <mxPoint x="691" y="292" as="sourcePoint" />
            <mxPoint x="720" y="190" as="targetPoint" />
            <Array as="points">
              <mxPoint x="905" y="240" />
              <mxPoint x="821" y="240" />
            </Array>
          </mxGeometry>
        </mxCell>
        <mxCell id="lpN_ar5oNNIw63qb3rWN-18" value="Jewelry&lt;div&gt;&lt;br&gt;&lt;/div&gt;" style="swimlane;fontStyle=1;align=center;verticalAlign=top;childLayout=stackLayout;horizontal=1;startSize=26;horizontalStack=0;resizeParent=1;resizeParentMax=0;resizeLast=0;collapsible=1;marginBottom=0;whiteSpace=wrap;html=1;" vertex="1" parent="1">
          <mxGeometry x="295" y="530" width="140" height="154" as="geometry" />
        </mxCell>
        <mxCell id="lpN_ar5oNNIw63qb3rWN-19" value="- jewelryId: int&lt;div&gt;- name: String&lt;br&gt;&lt;/div&gt;&lt;div&gt;- description: String&lt;br&gt;&lt;/div&gt;&lt;div&gt;- initialPrice: double&lt;br&gt;&lt;/div&gt;&lt;div&gt;- finalPrice: double&lt;br&gt;&lt;/div&gt;&lt;div&gt;- status: String&lt;br&gt;&lt;/div&gt;" style="text;strokeColor=none;fillColor=none;align=left;verticalAlign=top;spacingLeft=4;spacingRight=4;overflow=hidden;rotatable=0;points=[[0,0.5],[1,0.5]];portConstraint=eastwest;whiteSpace=wrap;html=1;" vertex="1" parent="lpN_ar5oNNIw63qb3rWN-18">
          <mxGeometry y="26" width="140" height="94" as="geometry" />
        </mxCell>
        <mxCell id="lpN_ar5oNNIw63qb3rWN-20" value="" style="line;strokeWidth=1;fillColor=none;align=left;verticalAlign=middle;spacingTop=-1;spacingLeft=3;spacingRight=3;rotatable=0;labelPosition=right;points=[];portConstraint=eastwest;strokeColor=inherit;" vertex="1" parent="lpN_ar5oNNIw63qb3rWN-18">
          <mxGeometry y="120" width="140" height="8" as="geometry" />
        </mxCell>
        <mxCell id="lpN_ar5oNNIw63qb3rWN-21" value="+ updateJewelryInfo()" style="text;strokeColor=none;fillColor=none;align=left;verticalAlign=top;spacingLeft=4;spacingRight=4;overflow=hidden;rotatable=0;points=[[0,0.5],[1,0.5]];portConstraint=eastwest;whiteSpace=wrap;html=1;" vertex="1" parent="lpN_ar5oNNIw63qb3rWN-18">
          <mxGeometry y="128" width="140" height="26" as="geometry" />
        </mxCell>
        <mxCell id="8DoTlK2dznRhzNa83eF4-5" value="" style="endArrow=block;endSize=16;endFill=0;html=1;rounded=0;exitX=0.463;exitY=-0.025;exitDx=0;exitDy=0;exitPerimeter=0;entryX=0.907;entryY=0.998;entryDx=0;entryDy=0;entryPerimeter=0;" edge="1" parent="1" target="C92_ROcSfTYuFBgOWo9x-4">
          <mxGeometry width="160" relative="1" as="geometry">
            <mxPoint x="1280" y="270" as="sourcePoint" />
            <mxPoint x="1140" y="190" as="targetPoint" />
            <Array as="points">
              <mxPoint x="1280" y="230" />
              <mxPoint x="1280" y="220" />
              <mxPoint x="870" y="220" />
            </Array>
          </mxGeometry>
        </mxCell>
        <mxCell id="lpN_ar5oNNIw63qb3rWN-22" value="Order           " style="swimlane;fontStyle=1;align=center;verticalAlign=top;childLayout=stackLayout;horizontal=1;startSize=26;horizontalStack=0;resizeParent=1;resizeParentMax=0;resizeLast=0;collapsible=1;marginBottom=0;whiteSpace=wrap;html=1;" vertex="1" parent="1">
          <mxGeometry x="890" y="540" width="170" height="150" as="geometry" />
        </mxCell>
        <mxCell id="lpN_ar5oNNIw63qb3rWN-23" value="- orderID: int&lt;br&gt;- auctionID: int &lt;br&gt;- customerID: int &lt;br&gt;- orderStatus: String" style="text;strokeColor=none;fillColor=none;align=left;verticalAlign=top;spacingLeft=4;spacingRight=4;overflow=hidden;rotatable=0;points=[[0,0.5],[1,0.5]];portConstraint=eastwest;whiteSpace=wrap;html=1;" vertex="1" parent="lpN_ar5oNNIw63qb3rWN-22">
          <mxGeometry y="26" width="170" height="74" as="geometry" />
        </mxCell>
        <mxCell id="lpN_ar5oNNIw63qb3rWN-24" value="" style="line;strokeWidth=1;fillColor=none;align=left;verticalAlign=middle;spacingTop=-1;spacingLeft=3;spacingRight=3;rotatable=0;labelPosition=right;points=[];portConstraint=eastwest;strokeColor=inherit;" vertex="1" parent="lpN_ar5oNNIw63qb3rWN-22">
          <mxGeometry y="100" width="170" height="8" as="geometry" />
        </mxCell>
        <mxCell id="lpN_ar5oNNIw63qb3rWN-25" value="+ createOrder()&lt;div&gt;+ updateOrderStatus()&amp;nbsp;&lt;br&gt;&lt;/div&gt;" style="text;strokeColor=none;fillColor=none;align=left;verticalAlign=top;spacingLeft=4;spacingRight=4;overflow=hidden;rotatable=0;points=[[0,0.5],[1,0.5]];portConstraint=eastwest;whiteSpace=wrap;html=1;" vertex="1" parent="lpN_ar5oNNIw63qb3rWN-22">
          <mxGeometry y="108" width="170" height="42" as="geometry" />
        </mxCell>
        <mxCell id="8DoTlK2dznRhzNa83eF4-10" value="Auction" style="swimlane;fontStyle=1;align=center;verticalAlign=top;childLayout=stackLayout;horizontal=1;startSize=26;horizontalStack=0;resizeParent=1;resizeParentMax=0;resizeLast=0;collapsible=1;marginBottom=0;whiteSpace=wrap;html=1;" vertex="1" parent="1">
          <mxGeometry x="230" y="770" width="250" height="178" as="geometry" />
        </mxCell>
        <mxCell id="8DoTlK2dznRhzNa83eF4-11" value="&lt;span style=&quot;background-color: initial;&quot;&gt;- auctionId: int&lt;/span&gt;&lt;br&gt;&lt;span style=&quot;background-color: initial;&quot;&gt;- startTime: Date&lt;/span&gt;&lt;br&gt;&lt;span style=&quot;background-color: initial;&quot;&gt;- endTime: Date&lt;/span&gt;&lt;br&gt;&lt;span style=&quot;background-color: initial;&quot;&gt;- status: String&lt;/span&gt;" style="text;strokeColor=none;fillColor=none;align=left;verticalAlign=top;spacingLeft=4;spacingRight=4;overflow=hidden;rotatable=0;points=[[0,0.5],[1,0.5]];portConstraint=eastwest;whiteSpace=wrap;html=1;" vertex="1" parent="8DoTlK2dznRhzNa83eF4-10">
          <mxGeometry y="26" width="250" height="74" as="geometry" />
        </mxCell>
        <mxCell id="8DoTlK2dznRhzNa83eF4-12" value="" style="line;strokeWidth=1;fillColor=none;align=left;verticalAlign=middle;spacingTop=-1;spacingLeft=3;spacingRight=3;rotatable=0;labelPosition=right;points=[];portConstraint=eastwest;strokeColor=inherit;" vertex="1" parent="8DoTlK2dznRhzNa83eF4-10">
          <mxGeometry y="100" width="250" height="8" as="geometry" />
        </mxCell>
        <mxCell id="8DoTlK2dznRhzNa83eF4-13" value="&lt;div&gt;+ createAuction()&lt;span style=&quot;background-color: initial;&quot;&gt;&lt;br&gt;&lt;/span&gt;&lt;/div&gt;+ openAuction()&amp;nbsp;&lt;div&gt;+ closeAuction()&lt;br&gt;+ addJewelry()&lt;br&gt;&lt;/div&gt;" style="text;strokeColor=none;fillColor=none;align=left;verticalAlign=top;spacingLeft=4;spacingRight=4;overflow=hidden;rotatable=0;points=[[0,0.5],[1,0.5]];portConstraint=eastwest;whiteSpace=wrap;html=1;" vertex="1" parent="8DoTlK2dznRhzNa83eF4-10">
          <mxGeometry y="108" width="250" height="70" as="geometry" />
        </mxCell>
        <mxCell id="lpN_ar5oNNIw63qb3rWN-26" value="TransactionHistory      " style="swimlane;fontStyle=1;align=center;verticalAlign=top;childLayout=stackLayout;horizontal=1;startSize=26;horizontalStack=0;resizeParent=1;resizeParentMax=0;resizeLast=0;collapsible=1;marginBottom=0;whiteSpace=wrap;html=1;" vertex="1" parent="1">
          <mxGeometry x="260" y="1030" width="170" height="170" as="geometry" />
        </mxCell>
        <mxCell id="lpN_ar5oNNIw63qb3rWN-27" value="- transactionID: int&amp;nbsp;&lt;br&gt;- auctionID: int&amp;nbsp;&lt;br&gt;- jewelryID: int&lt;br&gt;- transactionDate: Date&lt;br&gt;- transactionAmount: double" style="text;strokeColor=none;fillColor=none;align=left;verticalAlign=top;spacingLeft=4;spacingRight=4;overflow=hidden;rotatable=0;points=[[0,0.5],[1,0.5]];portConstraint=eastwest;whiteSpace=wrap;html=1;" vertex="1" parent="lpN_ar5oNNIw63qb3rWN-26">
          <mxGeometry y="26" width="170" height="94" as="geometry" />
        </mxCell>
        <mxCell id="lpN_ar5oNNIw63qb3rWN-28" value="" style="line;strokeWidth=1;fillColor=none;align=left;verticalAlign=middle;spacingTop=-1;spacingLeft=3;spacingRight=3;rotatable=0;labelPosition=right;points=[];portConstraint=eastwest;strokeColor=inherit;" vertex="1" parent="lpN_ar5oNNIw63qb3rWN-26">
          <mxGeometry y="120" width="170" height="8" as="geometry" />
        </mxCell>
        <mxCell id="lpN_ar5oNNIw63qb3rWN-29" value="+ logTransaction()&amp;nbsp;" style="text;strokeColor=none;fillColor=none;align=left;verticalAlign=top;spacingLeft=4;spacingRight=4;overflow=hidden;rotatable=0;points=[[0,0.5],[1,0.5]];portConstraint=eastwest;whiteSpace=wrap;html=1;" vertex="1" parent="lpN_ar5oNNIw63qb3rWN-26">
          <mxGeometry y="128" width="170" height="42" as="geometry" />
        </mxCell>
        <mxCell id="lpN_ar5oNNIw63qb3rWN-30" value="Payment          " style="swimlane;fontStyle=1;align=center;verticalAlign=top;childLayout=stackLayout;horizontal=1;startSize=26;horizontalStack=0;resizeParent=1;resizeParentMax=0;resizeLast=0;collapsible=1;marginBottom=0;whiteSpace=wrap;html=1;" vertex="1" parent="1">
          <mxGeometry x="930" y="940" width="160" height="140" as="geometry" />
        </mxCell>
        <mxCell id="lpN_ar5oNNIw63qb3rWN-31" value="- paymentID: int&lt;div&gt;- orderID: int&lt;/div&gt;&lt;div&gt;- paymentAmount: double&lt;/div&gt;&lt;div&gt;- paymentDate: Date &amp;nbsp;&amp;nbsp;&lt;br&gt;&lt;/div&gt;" style="text;strokeColor=none;fillColor=none;align=left;verticalAlign=top;spacingLeft=4;spacingRight=4;overflow=hidden;rotatable=0;points=[[0,0.5],[1,0.5]];portConstraint=eastwest;whiteSpace=wrap;html=1;" vertex="1" parent="lpN_ar5oNNIw63qb3rWN-30">
          <mxGeometry y="26" width="160" height="74" as="geometry" />
        </mxCell>
        <mxCell id="lpN_ar5oNNIw63qb3rWN-32" value="" style="line;strokeWidth=1;fillColor=none;align=left;verticalAlign=middle;spacingTop=-1;spacingLeft=3;spacingRight=3;rotatable=0;labelPosition=right;points=[];portConstraint=eastwest;strokeColor=inherit;" vertex="1" parent="lpN_ar5oNNIw63qb3rWN-30">
          <mxGeometry y="100" width="160" height="8" as="geometry" />
        </mxCell>
        <mxCell id="lpN_ar5oNNIw63qb3rWN-33" value="+ processPayment()&amp;nbsp;" style="text;strokeColor=none;fillColor=none;align=left;verticalAlign=top;spacingLeft=4;spacingRight=4;overflow=hidden;rotatable=0;points=[[0,0.5],[1,0.5]];portConstraint=eastwest;whiteSpace=wrap;html=1;" vertex="1" parent="lpN_ar5oNNIw63qb3rWN-30">
          <mxGeometry y="108" width="160" height="32" as="geometry" />
        </mxCell>
        <mxCell id="lpN_ar5oNNIw63qb3rWN-44" value="" style="endArrow=none;html=1;rounded=0;entryX=0.5;entryY=0;entryDx=0;entryDy=0;" edge="1" parent="1" source="C92_ROcSfTYuFBgOWo9x-8" target="lpN_ar5oNNIw63qb3rWN-18">
          <mxGeometry relative="1" as="geometry">
            <mxPoint x="310" y="460" as="sourcePoint" />
            <mxPoint x="460" y="440" as="targetPoint" />
            <Array as="points" />
          </mxGeometry>
        </mxCell>
        <mxCell id="lpN_ar5oNNIw63qb3rWN-45" value="" style="resizable=0;html=1;whiteSpace=wrap;align=left;verticalAlign=bottom;" connectable="0" vertex="1" parent="lpN_ar5oNNIw63qb3rWN-44">
          <mxGeometry x="-1" relative="1" as="geometry" />
        </mxCell>
        <mxCell id="lpN_ar5oNNIw63qb3rWN-46" value="" style="resizable=0;html=1;whiteSpace=wrap;align=right;verticalAlign=bottom;" connectable="0" vertex="1" parent="lpN_ar5oNNIw63qb3rWN-44">
          <mxGeometry x="1" relative="1" as="geometry" />
        </mxCell>
        <mxCell id="lpN_ar5oNNIw63qb3rWN-47" value="1" style="text;html=1;align=center;verticalAlign=middle;resizable=0;points=[];autosize=1;strokeColor=none;fillColor=none;" vertex="1" parent="1">
          <mxGeometry x="360" y="420" width="30" height="30" as="geometry" />
        </mxCell>
        <mxCell id="lpN_ar5oNNIw63qb3rWN-50" value="*" style="text;html=1;align=center;verticalAlign=middle;resizable=0;points=[];autosize=1;strokeColor=none;fillColor=none;" vertex="1" parent="1">
          <mxGeometry x="320" y="684" width="30" height="30" as="geometry" />
        </mxCell>
        <mxCell id="lpN_ar5oNNIw63qb3rWN-51" value="1" style="text;html=1;align=center;verticalAlign=middle;resizable=0;points=[];autosize=1;strokeColor=none;fillColor=none;" vertex="1" parent="1">
          <mxGeometry x="320" y="740" width="30" height="30" as="geometry" />
        </mxCell>
        <mxCell id="8DoTlK2dznRhzNa83eF4-17" value="" style="endArrow=none;html=1;rounded=0;entryX=0.5;entryY=0;entryDx=0;entryDy=0;" edge="1" parent="1">
          <mxGeometry relative="1" as="geometry">
            <mxPoint x="969.41" y="430" as="sourcePoint" />
            <mxPoint x="969.41" y="540" as="targetPoint" />
            <Array as="points" />
          </mxGeometry>
        </mxCell>
        <mxCell id="8DoTlK2dznRhzNa83eF4-18" value="" style="resizable=0;html=1;whiteSpace=wrap;align=left;verticalAlign=bottom;" connectable="0" vertex="1" parent="8DoTlK2dznRhzNa83eF4-17">
          <mxGeometry x="-1" relative="1" as="geometry" />
        </mxCell>
        <mxCell id="8DoTlK2dznRhzNa83eF4-19" value="1" style="resizable=0;html=1;whiteSpace=wrap;align=right;verticalAlign=bottom;" connectable="0" vertex="1" parent="8DoTlK2dznRhzNa83eF4-17">
          <mxGeometry x="1" relative="1" as="geometry">
            <mxPoint x="-5" y="-1" as="offset" />
          </mxGeometry>
        </mxCell>
        <mxCell id="8DoTlK2dznRhzNa83eF4-20" value="1" style="text;html=1;align=center;verticalAlign=middle;resizable=0;points=[];autosize=1;strokeColor=none;fillColor=none;" vertex="1" parent="1">
          <mxGeometry x="945" y="428" width="30" height="30" as="geometry" />
        </mxCell>
        <mxCell id="vWZ3seE_2avKaMobkSNL-1" value="" style="endArrow=none;html=1;rounded=0;entryX=0.104;entryY=1.02;entryDx=0;entryDy=0;entryPerimeter=0;" edge="1" parent="1" target="lpN_ar5oNNIw63qb3rWN-6">
          <mxGeometry width="50" height="50" relative="1" as="geometry">
            <mxPoint x="480" y="840" as="sourcePoint" />
            <mxPoint x="960" y="840" as="targetPoint" />
            <Array as="points">
              <mxPoint x="870" y="840" />
            </Array>
          </mxGeometry>
        </mxCell>
        <mxCell id="vWZ3seE_2avKaMobkSNL-2" value="*" style="text;html=1;align=center;verticalAlign=middle;resizable=0;points=[];autosize=1;strokeColor=none;fillColor=none;" vertex="1" parent="1">
          <mxGeometry x="475" y="838" width="30" height="30" as="geometry" />
        </mxCell>
        <mxCell id="vWZ3seE_2avKaMobkSNL-3" value="*" style="text;html=1;align=center;verticalAlign=middle;resizable=0;points=[];autosize=1;strokeColor=none;fillColor=none;" vertex="1" parent="1">
          <mxGeometry x="840" y="430" width="30" height="30" as="geometry" />
        </mxCell>
        <mxCell id="8DoTlK2dznRhzNa83eF4-32" value="1" style="text;html=1;align=center;verticalAlign=middle;resizable=0;points=[];autosize=1;strokeColor=none;fillColor=none;" vertex="1" parent="1">
          <mxGeometry x="330" y="948" width="30" height="30" as="geometry" />
        </mxCell>
        <mxCell id="8DoTlK2dznRhzNa83eF4-33" value="*" style="text;html=1;align=center;verticalAlign=middle;resizable=0;points=[];autosize=1;strokeColor=none;fillColor=none;" vertex="1" parent="1">
          <mxGeometry x="335" y="1003" width="30" height="30" as="geometry" />
        </mxCell>
        <mxCell id="vWZ3seE_2avKaMobkSNL-5" value="*" style="text;html=1;align=center;verticalAlign=middle;resizable=0;points=[];autosize=1;strokeColor=none;fillColor=none;" vertex="1" parent="1">
          <mxGeometry x="230" y="1070" width="30" height="30" as="geometry" />
        </mxCell>
        <mxCell id="vWZ3seE_2avKaMobkSNL-6" value="1" style="text;html=1;align=center;verticalAlign=middle;resizable=0;points=[];autosize=1;strokeColor=none;fillColor=none;" vertex="1" parent="1">
          <mxGeometry x="260" y="570" width="30" height="30" as="geometry" />
        </mxCell>
        <mxCell id="vWZ3seE_2avKaMobkSNL-7" value="1" style="text;html=1;align=center;verticalAlign=middle;resizable=0;points=[];autosize=1;strokeColor=none;fillColor=none;" vertex="1" parent="1">
          <mxGeometry x="340" y="510" width="30" height="30" as="geometry" />
        </mxCell>
        <mxCell id="_Gp8EvpgYDbb9bLuBwtw-1" value="" style="endArrow=diamondThin;endFill=0;endSize=24;html=1;rounded=0;entryX=0.518;entryY=-0.003;entryDx=0;entryDy=0;entryPerimeter=0;exitX=0.463;exitY=1.023;exitDx=0;exitDy=0;exitPerimeter=0;" edge="1" parent="1" source="lpN_ar5oNNIw63qb3rWN-21" target="8DoTlK2dznRhzNa83eF4-10">
          <mxGeometry width="160" relative="1" as="geometry">
            <mxPoint x="360" y="690" as="sourcePoint" />
            <mxPoint x="465" y="640" as="targetPoint" />
            <Array as="points">
              <mxPoint x="360" y="730" />
            </Array>
          </mxGeometry>
        </mxCell>
        <mxCell id="_Gp8EvpgYDbb9bLuBwtw-9" value="" style="endArrow=diamondThin;endFill=1;endSize=24;html=1;rounded=0;entryX=0.412;entryY=1.119;entryDx=0;entryDy=0;entryPerimeter=0;exitX=1;exitY=0.5;exitDx=0;exitDy=0;" edge="1" parent="1" source="8DoTlK2dznRhzNa83eF4-13" target="lpN_ar5oNNIw63qb3rWN-25">
          <mxGeometry width="160" relative="1" as="geometry">
            <mxPoint x="945" y="948" as="sourcePoint" />
            <mxPoint x="946" y="867" as="targetPoint" />
            <Array as="points">
              <mxPoint x="960" y="913" />
            </Array>
          </mxGeometry>
        </mxCell>
        <mxCell id="_Gp8EvpgYDbb9bLuBwtw-10" value="1" style="text;html=1;align=center;verticalAlign=middle;resizable=0;points=[];autosize=1;strokeColor=none;fillColor=none;" vertex="1" parent="1">
          <mxGeometry x="960" y="700" width="30" height="30" as="geometry" />
        </mxCell>
        <mxCell id="_Gp8EvpgYDbb9bLuBwtw-11" value="1" style="text;html=1;align=center;verticalAlign=middle;resizable=0;points=[];autosize=1;strokeColor=none;fillColor=none;" vertex="1" parent="1">
          <mxGeometry x="475" y="908" width="30" height="30" as="geometry" />
        </mxCell>
        <mxCell id="_Gp8EvpgYDbb9bLuBwtw-12" value="" style="endArrow=diamondThin;endFill=1;endSize=24;html=1;rounded=0;entryX=0.712;entryY=1.119;entryDx=0;entryDy=0;entryPerimeter=0;exitX=0.5;exitY=0;exitDx=0;exitDy=0;" edge="1" parent="1" source="lpN_ar5oNNIw63qb3rWN-30" target="lpN_ar5oNNIw63qb3rWN-25">
          <mxGeometry width="160" relative="1" as="geometry">
            <mxPoint x="1150" y="840" as="sourcePoint" />
            <mxPoint x="970" y="705" as="targetPoint" />
            <Array as="points">
              <mxPoint x="1010" y="840" />
            </Array>
          </mxGeometry>
        </mxCell>
        <mxCell id="_Gp8EvpgYDbb9bLuBwtw-13" value="1" style="text;html=1;align=center;verticalAlign=middle;resizable=0;points=[];autosize=1;strokeColor=none;fillColor=none;" vertex="1" parent="1">
          <mxGeometry x="1015" y="698" width="30" height="30" as="geometry" />
        </mxCell>
        <mxCell id="_Gp8EvpgYDbb9bLuBwtw-14" value="1" style="text;html=1;align=center;verticalAlign=middle;resizable=0;points=[];autosize=1;strokeColor=none;fillColor=none;" vertex="1" parent="1">
          <mxGeometry x="1010" y="910" width="30" height="30" as="geometry" />
        </mxCell>
        <mxCell id="_Gp8EvpgYDbb9bLuBwtw-15" value="" style="endArrow=diamondThin;endFill=0;endSize=24;html=1;rounded=0;entryX=0;entryY=0.5;entryDx=0;entryDy=0;exitX=0;exitY=0.5;exitDx=0;exitDy=0;" edge="1" parent="1" source="lpN_ar5oNNIw63qb3rWN-19" target="lpN_ar5oNNIw63qb3rWN-27">
          <mxGeometry width="160" relative="1" as="geometry">
            <mxPoint x="120" y="700" as="sourcePoint" />
            <mxPoint x="120" y="784" as="targetPoint" />
            <Array as="points">
              <mxPoint x="120" y="603" />
              <mxPoint x="120" y="1103" />
            </Array>
          </mxGeometry>
        </mxCell>
        <mxCell id="_Gp8EvpgYDbb9bLuBwtw-17" value="" style="endArrow=diamondThin;endFill=0;endSize=24;html=1;rounded=0;entryX=0.425;entryY=-0.009;entryDx=0;entryDy=0;entryPerimeter=0;exitX=0.414;exitY=1.008;exitDx=0;exitDy=0;exitPerimeter=0;" edge="1" parent="1" source="8DoTlK2dznRhzNa83eF4-13" target="lpN_ar5oNNIw63qb3rWN-26">
          <mxGeometry width="160" relative="1" as="geometry">
            <mxPoint x="330" y="950" as="sourcePoint" />
            <mxPoint x="370" y="1022" as="targetPoint" />
            <Array as="points" />
          </mxGeometry>
        </mxCell>
        <mxCell id="_Gp8EvpgYDbb9bLuBwtw-18" value="Use" style="endArrow=open;endSize=12;dashed=1;html=1;rounded=0;exitX=0.25;exitY=0;exitDx=0;exitDy=0;entryX=1;entryY=0.5;entryDx=0;entryDy=0;" edge="1" parent="1" source="8DoTlK2dznRhzNa83eF4-1" target="lpN_ar5oNNIw63qb3rWN-19">
          <mxGeometry width="160" relative="1" as="geometry">
            <mxPoint x="550" y="480" as="sourcePoint" />
            <mxPoint x="710" y="480" as="targetPoint" />
            <Array as="points">
              <mxPoint x="1195" y="250" />
              <mxPoint x="640" y="250" />
              <mxPoint x="640" y="603" />
            </Array>
          </mxGeometry>
        </mxCell>
        <mxCell id="_Gp8EvpgYDbb9bLuBwtw-19" value="Use" style="endArrow=open;endSize=12;dashed=1;html=1;rounded=0;entryX=1.014;entryY=0.145;entryDx=0;entryDy=0;entryPerimeter=0;exitX=0.53;exitY=0.964;exitDx=0;exitDy=0;exitPerimeter=0;" edge="1" parent="1" source="lpN_ar5oNNIw63qb3rWN-14" target="8DoTlK2dznRhzNa83eF4-11">
          <mxGeometry width="160" relative="1" as="geometry">
            <mxPoint x="610" y="712.41" as="sourcePoint" />
            <mxPoint x="770" y="712.41" as="targetPoint" />
            <Array as="points">
              <mxPoint x="1279" y="807" />
            </Array>
          </mxGeometry>
        </mxCell>
      </root>
    </mxGraphModel>
  </diagram>
</mxfile>
